<svg version="1.1" id="Layer_1" xmlns="http://www.w3.org/2000/svg" xmlns:xlink="http://www.w3.org/1999/xlink" x="0px" y="0px"
	 width="100%" viewBox="0 0 2390 1996" enable-background="new 0 0 2390 1996" xml:space="preserve">
<path fill="none" opacity="1.000000" stroke="#000000" stroke-linecap="round" stroke-linejoin="round" stroke-width="3.000000"
	d="
M1784.000000,155.000000 
	C1787.272339,158.565720 1785.946167,162.959503 1785.947144,167.000015 
	C1786.006226,410.333344 1784.208740,653.683350 1786.474731,896.995605 
	C1789.036011,1172.005127 1786.808838,1447.001221 1787.811157,1722.000732 
	C1787.899902,1746.328857 1786.350220,1770.776001 1783.746826,1794.972778 
	C1780.366333,1826.390625 1776.416382,1857.799927 1766.099609,1888.033936 
	C1754.720581,1921.381348 1735.617676,1948.372437 1703.921509,1964.848877 
	C1686.547729,1973.880127 1667.557739,1977.888184 1648.039795,1980.319336 
	C1637.014160,1981.692749 1625.948486,1981.433228 1614.004517,1982.291260 
	C1614.101929,1987.666626 1613.469360,1992.333374 1615.007324,1997.000000 
	C1873.666626,1997.000000 2132.333252,1997.000000 2391.000000,1997.000000 
	C2391.000000,1992.333374 2391.000000,1987.666626 2391.000000,1981.863403 
	C2374.870117,1982.581299 2358.906006,1980.914307 2342.983398,1978.093872 
	C2297.606201,1970.055786 2263.833984,1947.242188 2244.893799,1904.046509 
	C2233.095215,1877.138550 2227.563965,1848.971313 2223.766602,1820.030640 
	C2218.747314,1781.779785 2218.275635,1743.452637 2217.893799,1705.001099 
	C2213.437988,1256.338623 2217.340820,807.665588 2215.929932,359.000214 
	C2215.807129,319.976013 2217.678955,280.996399 2218.545166,242.012115 
	C2219.343018,206.117706 2222.796387,170.036346 2232.074951,135.019867 
	C2241.848389,98.134636 2256.795166,64.310982 2291.012939,43.020912 
	C2310.310547,31.014078 2331.505615,25.037851 2353.942383,21.621689 
	C2366.353760,19.731970 2378.797363,21.610579 2391.014160,19.041290 
	C2386.548828,5.999990 2386.548828,5.999999 2374.000000,5.999999 
	C2178.666748,6.000001 1983.333374,6.000000 1788.200073,6.000000 
	C1765.781616,62.045864 1743.390869,118.022949 1721.000122,174.000031 
	C1696.333252,235.666656 1671.536987,297.281830 1647.033447,359.013275 
	C1617.391479,433.689789 1587.490845,508.264282 1557.762573,582.905396 
	C1527.599609,658.637634 1497.115356,734.245361 1466.916138,809.966553 
	C1434.286743,891.781006 1400.982056,973.326050 1368.073242,1055.029541 
	C1366.903809,1057.932983 1366.136108,1061.040649 1365.106812,1064.036743 
	C1363.487793,1068.748901 1364.919067,1074.501953 1369.096436,1075.648438 
	C1378.764160,1078.301880 1387.083496,1084.299683 1398.068237,1086.186157 
	C1403.976196,1072.287231 1410.195068,1058.227295 1415.956665,1043.982422 
	C1427.725342,1014.885437 1439.707886,985.882568 1451.860840,956.941589 
	C1468.419067,917.509338 1483.816284,877.591309 1500.057983,838.023804 
	C1513.104736,806.239441 1526.875122,774.752441 1539.945068,742.977417 
	C1554.849609,706.741943 1569.150635,670.258118 1584.055054,634.022644 
	C1597.124756,602.247559 1610.895264,570.760498 1623.942139,538.976257 
	C1640.183716,499.408752 1655.816406,459.591309 1672.057983,420.023804 
	C1685.104736,388.239502 1698.875122,356.752380 1711.945068,324.977417 
	C1726.849487,288.741882 1740.526855,251.978348 1756.305786,216.134583 
	C1765.609131,195.000992 1771.187988,172.176773 1784.597412,152.722473 
	C1786.592773,149.827591 1787.059570,143.770416 1787.000000,139.000000 
"/>
<path fill="none" opacity="1.000000" stroke="#000000" stroke-linecap="round" stroke-linejoin="round" stroke-width="3.000000"
	d="
M396.000000,239.000000 
	C408.401886,254.199005 414.538361,272.696045 423.118988,289.940796 
	C443.380981,330.661865 462.321777,372.005768 482.031311,412.984924 
	C533.853760,520.731628 585.132080,628.746155 639.987366,735.006531 
	C659.066772,771.965515 678.119263,808.939636 696.899353,846.050964 
	C700.653137,853.468811 705.351807,856.929749 714.014282,856.160889 
	C727.685303,854.947449 740.771057,858.629883 754.066833,861.711792 
	C774.284241,866.398254 794.478516,864.386841 815.077332,860.399414 
	C858.699951,851.955078 900.426636,836.425171 943.949524,827.746765 
	C954.645874,825.613831 960.599365,816.088501 966.032166,807.019287 
	C974.888550,792.234985 985.039124,778.415649 999.034302,768.046265 
	C1024.226196,749.381165 1052.265015,739.013245 1084.000366,739.989136 
	C1086.664429,740.071045 1089.365112,740.227356 1091.980835,739.862305 
	C1092.771606,739.751953 1093.333374,738.666687 1094.965820,739.482910 
	C1090.705200,728.359802 1084.967651,718.873047 1080.083496,708.958862 
	C1045.825928,639.419800 1010.615417,570.349243 975.563782,501.221191 
	C947.317383,445.514435 919.779480,389.436310 890.928467,334.037262 
	C856.770935,268.448700 824.814880,201.748795 790.779297,136.114441 
	C770.117065,96.269379 750.287903,56.020828 730.232971,15.883608 
	C726.440979,8.294534 722.310852,5.809688 713.999817,5.818918 
	C506.333405,6.049552 298.666656,6.000000 91.000000,6.000000 
	C87.633331,6.000000 84.266670,6.000000 80.500000,6.000000 
	C80.500000,11.000000 80.500000,15.000000 80.500000,20.107830 
	C94.106216,19.838156 107.044266,21.246088 120.066025,23.641012 
	C146.364532,28.477758 170.037338,39.106705 192.996048,52.007042 
	C225.048157,70.016914 252.563385,93.910629 277.804352,120.187935 
	C302.265411,145.653305 324.207977,173.398026 345.119720,201.912186 
	C348.253632,206.185410 347.984955,210.462662 347.985382,215.000000 
	C348.002594,389.666656 348.000000,564.333313 348.000000,739.000000 
	C348.000000,742.366638 348.000000,745.733337 348.000000,750.177185 
	C364.112671,748.786438 378.169006,742.762817 393.090454,741.551575 
	C394.757507,737.809082 393.953125,734.330200 393.954193,731.000000 
	C394.006622,571.000000 394.027405,410.999969 393.912018,251.000061 
	C393.906769,243.682526 397.184601,236.158279 393.000000,229.000000 
"/>
<path fill="none" opacity="1.000000" stroke="#000000" stroke-linecap="round" stroke-linejoin="round" stroke-width="3.000000"
	d="
M1146.000000,1290.000000 
	C1149.500000,1296.666626 1153.000000,1303.333374 1156.500000,1310.000000 
"/>
<path fill="none" opacity="1.000000" stroke="#000000" stroke-linecap="round" stroke-linejoin="round" stroke-width="4.000000"
	d="
M351.000000,1592.000000 
	C346.656952,1592.900635 348.079681,1596.379272 348.046356,1599.000610 
	C347.927704,1608.332397 348.265564,1617.675415 347.956329,1626.998535 
	C346.141968,1681.697388 335.773346,1734.332031 314.349426,1785.147339 
	C294.309631,1832.679810 265.024811,1873.050659 226.813293,1906.788574 
	C187.693161,1941.328491 141.949951,1963.918213 91.028671,1976.119629 
	C64.986031,1982.359985 38.786106,1986.239014 11.999928,1986.008423 
	C9.952694,1985.990845 7.830909,1985.652100 5.065518,1987.734375 
	C5.269775,1990.000000 4.346744,1993.000000 5.910210,1996.500000 
	C237.665710,1996.500000 469.332855,1996.500000 700.988037,1996.500000 
	C701.170288,1993.666626 703.500305,1990.333374 700.589539,1986.381348 
	C688.752930,1984.935913 676.315491,1985.636719 663.957520,1984.437622 
	C637.556580,1981.876099 611.872559,1976.322876 587.099426,1967.713867 
	C548.610474,1954.338379 513.959290,1934.001587 482.855286,1907.167725 
	C432.402985,1863.641968 400.641846,1808.685303 381.120178,1745.962646 
	C373.426910,1721.244263 368.719940,1695.843628 365.793427,1670.023438 
	C363.000214,1645.378784 361.581299,1620.761353 362.000610,1596.000000 
	C362.019592,1594.880859 362.260040,1593.691040 360.991425,1592.906250 
	C358.183075,1591.018921 354.988861,1592.433716 352.000000,1592.000000 
"/>
</svg>