<?xml version="1.0" encoding="UTF-8"?>
<svg id="Layer_1" data-name="Layer 1" xmlns="http://www.w3.org/2000/svg" viewBox="0 0 1468 932">
  <defs>
    <style>
      .cls-1, .cls-2 {
        fill: none;
      }

      .cls-2 {
        stroke: #231f20;
        strokeMiterlimit: 10;
      }
    </style>
  </defs>
  <rect class="cls-1" width="1468" height="932"/>
  <g>
    <path class="cls-2" d="M744.99,484.86c-1.26-1.57-2.36-3.24-3.27-4.99-.08-.01-.15-.03-.23-.05,.7,1.87,1.45,3.73,2.2,5.58,.43-.19,.86-.37,1.29-.55Z"/>
    <path class="cls-2" d="M553.39,556.63v-4.35c-1.11,.05-2.21,.1-3.32,.14v4.21c0,56.84-37.15,90.27-82.26,90.27v2.39h167.18v-2.39c-45.11,0-81.6-33.43-81.6-90.27Z"/>
    <path class="cls-2" d="M646.44,376.67c1.37,.39,2.75,.74,4.13,1.03,2.32,.09,4.64,.06,6.96-.08,12.45-2.21,24.49-6.48,36.82-9.18,.85-.78,1.69-1.57,2.51-2.38,.9-1.27,1.75-2.57,2.56-3.9,6.28-10.27,18.12-15.15,29.99-14.61l-89.11-176.16h-154.57v3.41c25.21,0,46.44,19.8,64.35,45.06v130.53c1.09-.21,2.2-.37,3.32-.47v-125.96c5.49,8.15,42.9,78.27,81.74,151.69,3.81-.33,7.65-.03,11.31,1.02Z"/>
    <path class="cls-2" d="M1040.32,174.81v-3.41h-144.62l-101.83,254.6c.2,.68,.39,1.37,.58,2.05,.44,.06,.88,.14,1.32,.22l99.93-249.37v391.88c-.66,50.52-3.98,75.1-41.79,75.1v3.41h186.41v-3.41c-37.81,0-41.79-24.58-41.79-75.1V249.91c0-49.84,3.98-75.1,41.79-75.1Z"/>
  </g>
</svg>