<svg stroke="currentColor" stroke-width="0" viewBox="0 0 16 16" fill="#4d4d4e" height="1.3em" width="1.3em" xmlns="http://www.w3.org/2000/svg" style="color: rgb(77, 77, 78);">
    <path fill-rule="evenodd" d="M2 13.5V7h1v6.5a.5.5 0 0 0 .5.5h9a.5.5 0 0 0 .5-.5V7h1v6.5a1.5 1.5 0 0 1-1.5 1.5h-9A1.5 1.5 0 0 1 2 13.5zm11-11V6l-2-2V2.5a.5.5 0 0 1 .5-.5h1a.5.5 0 0 1 .5.5z" stroke-dasharray="62.683528900146484" style="stroke-dashoffset: 0px;"></path>
    <path fill-rule="evenodd" d="M7.293 1.5a1 1 0 0 1 1.414 0l6.647 6.646a.5.5 0 0 1-.708.708L8 2.207 1.354 8.854a.5.5 0 1 1-.708-.708L7.293 1.5z" stroke-dasharray="42.31428146362305" style="stroke-dashoffset: 0px;"></path>
</svg>
