<?xml version="1.0" encoding="UTF-8"?>
<svg id="Layer_1" data-name="Layer 1" xmlns="http://www.w3.org/2000/svg" viewBox="0 0 572.51 551.46">
  <defs>
    <style>
      .cls-1 {
        fill: #070505;
      }
    </style>
  </defs>
  <path class="cls-1" d="M277.18,387.02c-1.26-1.57-2.36-3.24-3.27-4.99-.08-.01-.15-.03-.23-.05,.7,1.87,1.45,3.73,2.2,5.58,.43-.19,.86-.37,1.29-.55Z"/>
  <path class="cls-1" d="M85.58,458.8v-4.35c-1.11,.05-2.21,.1-3.32,.14v4.21c0,56.84-37.15,90.27-82.26,90.27v2.39H167.18v-2.39c-45.11,0-81.6-33.43-81.6-90.27Z"/>
  <path class="cls-1" d="M178.63,278.84c1.37,.39,2.75,.74,4.13,1.03,2.32,.09,4.64,.06,6.96-.08,12.45-2.21,24.49-6.48,36.82-9.18,.85-.78,1.69-1.57,2.51-2.38,.9-1.27,1.75-2.57,2.56-3.9,6.28-10.27,18.12-15.15,29.99-14.61L172.48,73.55H17.91v3.41c25.21,0,46.44,19.8,64.35,45.06V252.55c1.09-.21,9.81-2.29,10.93-2.39v-122c5.49,8.15,35.29,76.23,74.13,149.66,3.81-.33,7.65-.03,11.31,1.02Z"/>
  <path class="cls-1" d="M572.51,76.97h0c0-1.89-1.53-3.41-3.41-3.41h-141.21s-101.83,254.6-101.83,254.6c.2,.68,.39,1.37,.58,2.05,.44,.06,7.11,2.87,7.55,2.95l93-226,.7,365.78c-.66,50.52-3.98,75.1-41.79,75.1v3.41h186.41v-3.41c-37.81,0-41.79-24.58-41.79-75.1V152.07c0-49.84,3.98-75.1,41.79-75.1Z"/>
</svg>